<svg xmlns="http://www.w3.org/2000/svg" xmlns:xlink="http://www.w3.org/1999/xlink" width="500" zoomAndPan="magnify" viewBox="0 0 375 374.999991" height="500" preserveAspectRatio="xMidYMid meet" version="1.0"><defs><clipPath id="dbbcf127e4"><path d="M 0 96 L 268 96 L 268 347 L 0 347 Z M 0 96 " clip-rule="nonzero"/></clipPath><clipPath id="cb8f09ff26"><path d="M 0 260 L 82 260 L 82 347 L 0 347 Z M 0 260 " clip-rule="nonzero"/></clipPath><clipPath id="1738fa3910"><rect x="0" width="375" y="0" height="347"/></clipPath></defs><g transform="matrix(1, 0, 0, 1, 0, 28)"><g clip-path="url(#1738fa3910)"><g clip-path="url(#dbbcf127e4)"><path fill="#000000" d="M -679.953125 920.410156 L -649.941406 893.917969 C -649.449219 893.480469 -648.917969 893.097656 -648.351562 892.769531 C -647.78125 892.4375 -647.1875 892.167969 -646.566406 891.953125 C -645.945312 891.738281 -645.308594 891.589844 -644.65625 891.5 C -644.007812 891.414062 -643.351562 891.390625 -642.695312 891.429688 C -642.039062 891.472656 -641.394531 891.578125 -640.761719 891.746094 C -640.125 891.914062 -639.511719 892.140625 -638.921875 892.429688 C -638.332031 892.71875 -637.773438 893.0625 -637.253906 893.460938 C -636.730469 893.859375 -636.25 894.304688 -635.816406 894.796875 C -635.382812 895.289062 -635 895.820312 -634.667969 896.386719 C -634.335938 896.957031 -634.066406 897.550781 -633.851562 898.171875 C -633.640625 898.792969 -633.488281 899.429688 -633.402344 900.082031 C -633.3125 900.734375 -633.289062 901.386719 -633.332031 902.042969 C -633.371094 902.699219 -633.476562 903.34375 -633.644531 903.980469 C -633.8125 904.613281 -634.039062 905.226562 -634.328125 905.816406 C -634.617188 906.40625 -634.960938 906.964844 -635.359375 907.488281 C -635.757812 908.007812 -636.203125 908.488281 -636.695312 908.921875 L -666.707031 935.414062 C -667.199219 935.847656 -667.730469 936.230469 -668.300781 936.5625 C -668.867188 936.894531 -669.460938 937.164062 -670.082031 937.378906 C -670.707031 937.589844 -671.34375 937.742188 -671.992188 937.828125 C -672.644531 937.917969 -673.296875 937.941406 -673.953125 937.898438 C -674.609375 937.859375 -675.253906 937.753906 -675.890625 937.585938 C -676.527344 937.417969 -677.136719 937.191406 -677.730469 936.902344 C -678.320312 936.613281 -678.875 936.269531 -679.398438 935.871094 C -679.921875 935.472656 -680.398438 935.027344 -680.835938 934.535156 C -681.269531 934.042969 -681.652344 933.511719 -681.980469 932.945312 C -682.3125 932.375 -682.585938 931.78125 -682.796875 931.160156 C -683.011719 930.539062 -683.160156 929.902344 -683.25 929.25 C -683.335938 928.597656 -683.359375 927.945312 -683.320312 927.289062 C -683.277344 926.632812 -683.175781 925.988281 -683.007812 925.351562 C -682.839844 924.71875 -682.609375 924.105469 -682.320312 923.515625 C -682.03125 922.921875 -681.6875 922.367188 -681.289062 921.84375 C -680.890625 921.320312 -680.445312 920.84375 -679.953125 920.410156 Z M -619.929688 867.425781 L -589.917969 840.933594 C -589.425781 840.5 -588.894531 840.117188 -588.328125 839.785156 C -587.757812 839.453125 -587.164062 839.183594 -586.542969 838.96875 C -585.921875 838.757812 -585.285156 838.605469 -584.632812 838.519531 C -583.980469 838.429688 -583.328125 838.40625 -582.671875 838.449219 C -582.015625 838.488281 -581.371094 838.59375 -580.734375 838.761719 C -580.101562 838.929688 -579.488281 839.15625 -578.898438 839.445312 C -578.308594 839.734375 -577.75 840.078125 -577.226562 840.476562 C -576.707031 840.875 -576.226562 841.320312 -575.792969 841.8125 C -575.355469 842.304688 -574.972656 842.835938 -574.644531 843.402344 C -574.3125 843.972656 -574.042969 844.566406 -573.828125 845.1875 C -573.613281 845.808594 -573.464844 846.445312 -573.375 847.097656 C -573.289062 847.75 -573.265625 848.402344 -573.304688 849.058594 C -573.347656 849.714844 -573.453125 850.359375 -573.621094 850.996094 C -573.789062 851.628906 -574.015625 852.242188 -574.304688 852.832031 C -574.59375 853.425781 -574.9375 853.980469 -575.335938 854.503906 C -575.734375 855.027344 -576.179688 855.503906 -576.671875 855.9375 L -606.683594 882.429688 C -607.175781 882.867188 -607.707031 883.25 -608.273438 883.578125 C -608.84375 883.910156 -609.4375 884.179688 -610.058594 884.394531 C -610.679688 884.609375 -611.316406 884.757812 -611.96875 884.847656 C -612.621094 884.933594 -613.273438 884.957031 -613.929688 884.917969 C -614.585938 884.875 -615.230469 884.769531 -615.867188 884.601562 C -616.5 884.433594 -617.113281 884.207031 -617.703125 883.917969 C -618.292969 883.628906 -618.851562 883.285156 -619.375 882.886719 C -619.894531 882.488281 -620.375 882.042969 -620.808594 881.550781 C -621.246094 881.058594 -621.628906 880.527344 -621.957031 879.960938 C -622.289062 879.390625 -622.558594 878.796875 -622.773438 878.175781 C -622.988281 877.554688 -623.136719 876.917969 -623.226562 876.265625 C -623.3125 875.613281 -623.335938 874.960938 -623.296875 874.304688 C -623.253906 873.648438 -623.148438 873.003906 -622.980469 872.367188 C -622.8125 871.734375 -622.585938 871.121094 -622.296875 870.53125 C -622.007812 869.941406 -621.664062 869.382812 -621.265625 868.859375 C -620.867188 868.339844 -620.421875 867.859375 -619.929688 867.425781 Z M -559.90625 814.441406 L -529.894531 787.949219 C -529.398438 787.515625 -528.871094 787.132812 -528.300781 786.800781 C -527.734375 786.472656 -527.140625 786.199219 -526.515625 785.984375 C -525.894531 785.773438 -525.257812 785.621094 -524.609375 785.535156 C -523.957031 785.445312 -523.304688 785.421875 -522.648438 785.464844 C -521.992188 785.503906 -521.347656 785.609375 -520.710938 785.777344 C -520.074219 785.945312 -519.460938 786.171875 -518.871094 786.460938 C -518.28125 786.75 -517.726562 787.09375 -517.203125 787.492188 C -516.679688 787.890625 -516.203125 788.335938 -515.765625 788.828125 C -515.332031 789.320312 -514.949219 789.851562 -514.617188 790.421875 C -514.289062 790.988281 -514.015625 791.582031 -513.804688 792.203125 C -513.589844 792.828125 -513.441406 793.464844 -513.351562 794.113281 C -513.265625 794.765625 -513.242188 795.417969 -513.28125 796.074219 C -513.324219 796.730469 -513.425781 797.375 -513.59375 798.011719 C -513.761719 798.648438 -513.992188 799.257812 -514.28125 799.851562 C -514.570312 800.441406 -514.914062 800.996094 -515.3125 801.519531 C -515.707031 802.042969 -516.15625 802.519531 -516.648438 802.957031 L -546.660156 829.449219 C -547.152344 829.882812 -547.683594 830.265625 -548.25 830.59375 C -548.820312 830.925781 -549.414062 831.199219 -550.035156 831.410156 C -550.65625 831.625 -551.292969 831.773438 -551.945312 831.863281 C -552.59375 831.949219 -553.25 831.972656 -553.90625 831.933594 C -554.558594 831.890625 -555.207031 831.789062 -555.839844 831.621094 C -556.476562 831.453125 -557.089844 831.222656 -557.679688 830.933594 C -558.269531 830.644531 -558.828125 830.300781 -559.347656 829.902344 C -559.871094 829.503906 -560.351562 829.058594 -560.785156 828.566406 C -561.21875 828.074219 -561.601562 827.542969 -561.933594 826.976562 C -562.265625 826.40625 -562.535156 825.8125 -562.75 825.191406 C -562.960938 824.570312 -563.113281 823.933594 -563.199219 823.28125 C -563.289062 822.632812 -563.3125 821.976562 -563.269531 821.320312 C -563.230469 820.667969 -563.125 820.019531 -562.957031 819.386719 C -562.789062 818.75 -562.5625 818.136719 -562.273438 817.546875 C -561.984375 816.957031 -561.640625 816.398438 -561.242188 815.878906 C -560.84375 815.355469 -560.398438 814.875 -559.90625 814.441406 Z M -499.878906 761.457031 L -469.867188 734.964844 C -469.375 734.53125 -468.84375 734.148438 -468.277344 733.816406 C -467.710938 733.488281 -467.113281 733.214844 -466.492188 733.003906 C -465.871094 732.789062 -465.234375 732.640625 -464.582031 732.550781 C -463.933594 732.464844 -463.277344 732.441406 -462.625 732.480469 C -461.96875 732.519531 -461.320312 732.625 -460.6875 732.792969 C -460.050781 732.960938 -459.4375 733.191406 -458.847656 733.480469 C -458.257812 733.765625 -457.703125 734.109375 -457.179688 734.507812 C -456.65625 734.90625 -456.175781 735.351562 -455.742188 735.847656 C -455.308594 736.339844 -454.925781 736.867188 -454.59375 737.4375 C -454.265625 738.003906 -453.992188 738.601562 -453.777344 739.222656 C -453.566406 739.84375 -453.414062 740.480469 -453.328125 741.128906 C -453.238281 741.78125 -453.214844 742.433594 -453.257812 743.089844 C -453.296875 743.746094 -453.402344 744.394531 -453.570312 745.027344 C -453.738281 745.664062 -453.964844 746.277344 -454.253906 746.867188 C -454.542969 747.457031 -454.886719 748.011719 -455.285156 748.535156 C -455.683594 749.058594 -456.128906 749.539062 -456.621094 749.972656 L -486.636719 776.464844 C -487.128906 776.898438 -487.65625 777.28125 -488.226562 777.613281 C -488.792969 777.941406 -489.386719 778.214844 -490.011719 778.425781 C -490.632812 778.640625 -491.269531 778.789062 -491.917969 778.878906 C -492.570312 778.964844 -493.222656 778.988281 -493.878906 778.949219 C -494.535156 778.910156 -495.179688 778.804688 -495.816406 778.636719 C -496.453125 778.46875 -497.066406 778.238281 -497.65625 777.949219 C -498.246094 777.660156 -498.800781 777.320312 -499.324219 776.921875 C -499.847656 776.523438 -500.324219 776.078125 -500.761719 775.582031 C -501.195312 775.089844 -501.578125 774.5625 -501.910156 773.992188 C -502.238281 773.425781 -502.511719 772.828125 -502.722656 772.207031 C -502.9375 771.585938 -503.089844 770.949219 -503.175781 770.300781 C -503.265625 769.648438 -503.289062 768.996094 -503.246094 768.339844 C -503.207031 767.683594 -503.101562 767.035156 -502.933594 766.402344 C -502.765625 765.765625 -502.535156 765.152344 -502.246094 764.5625 C -501.960938 763.972656 -501.617188 763.417969 -501.21875 762.894531 C -500.820312 762.371094 -500.375 761.890625 -499.878906 761.457031 Z M -439.855469 708.472656 L -409.84375 681.980469 C -409.351562 681.546875 -408.820312 681.164062 -408.253906 680.835938 C -407.683594 680.503906 -407.089844 680.230469 -406.46875 680.019531 C -405.847656 679.804688 -405.210938 679.65625 -404.558594 679.566406 C -403.90625 679.480469 -403.253906 679.457031 -402.597656 679.496094 C -401.941406 679.539062 -401.296875 679.640625 -400.660156 679.808594 C -400.027344 679.976562 -399.414062 680.207031 -398.824219 680.496094 C -398.234375 680.785156 -397.675781 681.128906 -397.152344 681.527344 C -396.632812 681.925781 -396.152344 682.371094 -395.71875 682.863281 C -395.28125 683.355469 -394.898438 683.886719 -394.570312 684.453125 C -394.238281 685.019531 -393.96875 685.617188 -393.753906 686.238281 C -393.542969 686.859375 -393.390625 687.496094 -393.304688 688.148438 C -393.214844 688.796875 -393.191406 689.453125 -393.230469 690.109375 C -393.273438 690.761719 -393.378906 691.410156 -393.546875 692.042969 C -393.714844 692.679688 -393.941406 693.292969 -394.230469 693.882812 C -394.519531 694.472656 -394.863281 695.03125 -395.261719 695.550781 C -395.660156 696.074219 -396.105469 696.554688 -396.597656 696.988281 L -426.609375 723.480469 C -427.101562 723.914062 -427.632812 724.296875 -428.203125 724.628906 C -428.769531 724.957031 -429.363281 725.230469 -429.984375 725.445312 C -430.605469 725.65625 -431.242188 725.808594 -431.894531 725.894531 C -432.546875 725.984375 -433.199219 726.007812 -433.855469 725.964844 C -434.511719 725.925781 -435.15625 725.820312 -435.792969 725.652344 C -436.425781 725.484375 -437.039062 725.257812 -437.628906 724.96875 C -438.222656 724.679688 -438.777344 724.335938 -439.300781 723.9375 C -439.824219 723.539062 -440.300781 723.09375 -440.734375 722.601562 C -441.171875 722.109375 -441.554688 721.578125 -441.882812 721.007812 C -442.214844 720.441406 -442.488281 719.847656 -442.699219 719.226562 C -442.914062 718.601562 -443.0625 717.964844 -443.152344 717.316406 C -443.238281 716.664062 -443.261719 716.011719 -443.222656 715.355469 C -443.179688 714.699219 -443.078125 714.054688 -442.910156 713.417969 C -442.742188 712.78125 -442.511719 712.171875 -442.222656 711.578125 C -441.933594 710.988281 -441.589844 710.433594 -441.191406 709.910156 C -440.792969 709.386719 -440.347656 708.910156 -439.855469 708.472656 Z M -379.832031 655.492188 L -349.820312 629 C -349.328125 628.5625 -348.796875 628.179688 -348.226562 627.851562 C -347.660156 627.519531 -347.066406 627.25 -346.445312 627.035156 C -345.824219 626.820312 -345.1875 626.671875 -344.535156 626.582031 C -343.882812 626.496094 -343.230469 626.472656 -342.574219 626.511719 C -341.917969 626.554688 -341.273438 626.660156 -340.636719 626.828125 C -340.003906 626.996094 -339.390625 627.222656 -338.800781 627.511719 C -338.207031 627.800781 -337.652344 628.144531 -337.128906 628.542969 C -336.605469 628.941406 -336.128906 629.386719 -335.691406 629.878906 C -335.257812 630.371094 -334.875 630.902344 -334.546875 631.46875 C -334.214844 632.039062 -333.941406 632.632812 -333.730469 633.253906 C -333.515625 633.875 -333.367188 634.511719 -333.277344 635.164062 C -333.191406 635.816406 -333.167969 636.46875 -333.207031 637.125 C -333.25 637.78125 -333.351562 638.425781 -333.519531 639.0625 C -333.6875 639.695312 -333.917969 640.308594 -334.207031 640.898438 C -334.496094 641.488281 -334.839844 642.046875 -335.238281 642.570312 C -335.636719 643.089844 -336.082031 643.570312 -336.574219 644.003906 L -366.585938 670.496094 C -367.078125 670.929688 -367.609375 671.3125 -368.175781 671.644531 C -368.746094 671.976562 -369.339844 672.246094 -369.960938 672.460938 C -370.582031 672.671875 -371.21875 672.824219 -371.871094 672.910156 C -372.523438 673 -373.175781 673.023438 -373.832031 672.980469 C -374.488281 672.941406 -375.132812 672.835938 -375.769531 672.667969 C -376.402344 672.5 -377.015625 672.273438 -377.605469 671.984375 C -378.195312 671.695312 -378.753906 671.351562 -379.277344 670.953125 C -379.796875 670.554688 -380.277344 670.109375 -380.710938 669.617188 C -381.148438 669.125 -381.527344 668.59375 -381.859375 668.027344 C -382.191406 667.457031 -382.460938 666.863281 -382.675781 666.242188 C -382.886719 665.621094 -383.039062 664.984375 -383.125 664.332031 C -383.214844 663.679688 -383.238281 663.027344 -383.195312 662.371094 C -383.15625 661.714844 -383.050781 661.070312 -382.882812 660.433594 C -382.714844 659.800781 -382.488281 659.1875 -382.199219 658.597656 C -381.910156 658.003906 -381.566406 657.449219 -381.167969 656.925781 C -380.769531 656.402344 -380.324219 655.925781 -379.832031 655.492188 Z M -319.808594 602.507812 L -289.792969 576.015625 C -289.300781 575.582031 -288.773438 575.199219 -288.203125 574.867188 C -287.636719 574.535156 -287.039062 574.265625 -286.417969 574.050781 C -285.796875 573.839844 -285.160156 573.6875 -284.511719 573.601562 C -283.859375 573.511719 -283.207031 573.488281 -282.550781 573.53125 C -281.894531 573.570312 -281.246094 573.675781 -280.613281 573.84375 C -279.976562 574.011719 -279.363281 574.238281 -278.773438 574.527344 C -278.183594 574.816406 -277.628906 575.160156 -277.105469 575.558594 C -276.582031 575.957031 -276.101562 576.402344 -275.667969 576.894531 C -275.234375 577.386719 -274.851562 577.917969 -274.519531 578.484375 C -274.191406 579.054688 -273.917969 579.648438 -273.707031 580.269531 C -273.492188 580.890625 -273.339844 581.527344 -273.253906 582.179688 C -273.164062 582.832031 -273.140625 583.484375 -273.183594 584.140625 C -273.222656 584.796875 -273.328125 585.441406 -273.496094 586.078125 C -273.664062 586.710938 -273.894531 587.324219 -274.183594 587.914062 C -274.46875 588.507812 -274.8125 589.0625 -275.210938 589.585938 C -275.609375 590.109375 -276.054688 590.585938 -276.546875 591.019531 L -306.5625 617.511719 C -307.054688 617.949219 -307.585938 618.332031 -308.152344 618.660156 C -308.71875 618.992188 -309.316406 619.261719 -309.9375 619.476562 C -310.558594 619.691406 -311.195312 619.839844 -311.847656 619.929688 C -312.496094 620.015625 -313.152344 620.039062 -313.804688 620 C -314.460938 619.957031 -315.109375 619.851562 -315.742188 619.683594 C -316.378906 619.515625 -316.992188 619.289062 -317.582031 619 C -318.171875 618.710938 -318.726562 618.367188 -319.25 617.96875 C -319.773438 617.570312 -320.253906 617.125 -320.6875 616.632812 C -321.121094 616.140625 -321.503906 615.609375 -321.835938 615.042969 C -322.164062 614.472656 -322.4375 613.878906 -322.652344 613.257812 C -322.863281 612.636719 -323.015625 612 -323.101562 611.347656 C -323.191406 610.695312 -323.214844 610.042969 -323.171875 609.386719 C -323.132812 608.730469 -323.027344 608.085938 -322.859375 607.449219 C -322.691406 606.816406 -322.464844 606.203125 -322.175781 605.613281 C -321.886719 605.023438 -321.542969 604.464844 -321.144531 603.941406 C -320.746094 603.421875 -320.300781 602.941406 -319.808594 602.507812 Z M -259.78125 549.523438 L -229.769531 523.03125 C -229.277344 522.597656 -228.746094 522.214844 -228.179688 521.882812 C -227.609375 521.554688 -227.015625 521.28125 -226.394531 521.066406 C -225.773438 520.855469 -225.136719 520.703125 -224.484375 520.617188 C -223.835938 520.527344 -223.179688 520.503906 -222.523438 520.546875 C -221.867188 520.585938 -221.222656 520.691406 -220.589844 520.859375 C -219.953125 521.027344 -219.339844 521.253906 -218.75 521.542969 C -218.160156 521.832031 -217.601562 522.175781 -217.082031 522.574219 C -216.558594 522.972656 -216.078125 523.417969 -215.644531 523.910156 C -215.210938 524.402344 -214.828125 524.933594 -214.496094 525.503906 C -214.164062 526.070312 -213.894531 526.664062 -213.679688 527.289062 C -213.46875 527.910156 -213.316406 528.546875 -213.230469 529.195312 C -213.140625 529.847656 -213.117188 530.5 -213.160156 531.15625 C -213.199219 531.8125 -213.304688 532.457031 -213.472656 533.09375 C -213.640625 533.730469 -213.867188 534.339844 -214.15625 534.933594 C -214.445312 535.523438 -214.789062 536.078125 -215.1875 536.601562 C -215.585938 537.125 -216.03125 537.601562 -216.523438 538.039062 L -246.535156 564.53125 C -247.027344 564.964844 -247.558594 565.347656 -248.128906 565.675781 C -248.695312 566.007812 -249.289062 566.28125 -249.910156 566.492188 C -250.535156 566.707031 -251.171875 566.855469 -251.820312 566.945312 C -252.472656 567.03125 -253.125 567.054688 -253.78125 567.015625 C -254.4375 566.972656 -255.082031 566.871094 -255.71875 566.703125 C -256.355469 566.535156 -256.964844 566.304688 -257.558594 566.015625 C -258.148438 565.726562 -258.703125 565.382812 -259.226562 564.984375 C -259.75 564.585938 -260.226562 564.140625 -260.664062 563.648438 C -261.097656 563.15625 -261.480469 562.625 -261.808594 562.058594 C -262.140625 561.492188 -262.414062 560.894531 -262.625 560.273438 C -262.839844 559.652344 -262.988281 559.015625 -263.078125 558.363281 C -263.164062 557.714844 -263.1875 557.058594 -263.148438 556.402344 C -263.105469 555.75 -263.003906 555.101562 -262.835938 554.46875 C -262.667969 553.832031 -262.4375 553.21875 -262.148438 552.628906 C -261.859375 552.039062 -261.515625 551.480469 -261.117188 550.960938 C -260.71875 550.4375 -260.273438 549.957031 -259.78125 549.523438 Z M -199.757812 496.539062 L -169.746094 470.046875 C -169.253906 469.613281 -168.722656 469.230469 -168.15625 468.898438 C -167.585938 468.570312 -166.992188 468.296875 -166.371094 468.085938 C -165.75 467.871094 -165.113281 467.722656 -164.460938 467.632812 C -163.808594 467.546875 -163.15625 467.523438 -162.5 467.5625 C -161.84375 467.601562 -161.199219 467.707031 -160.5625 467.875 C -159.929688 468.042969 -159.316406 468.273438 -158.726562 468.5625 C -158.136719 468.851562 -157.578125 469.191406 -157.054688 469.589844 C -156.53125 469.988281 -156.054688 470.433594 -155.621094 470.929688 C -155.183594 471.421875 -154.800781 471.949219 -154.472656 472.519531 C -154.140625 473.085938 -153.871094 473.683594 -153.65625 474.304688 C -153.441406 474.925781 -153.292969 475.5625 -153.203125 476.210938 C -153.117188 476.863281 -153.09375 477.515625 -153.132812 478.171875 C -153.175781 478.828125 -153.28125 479.476562 -153.449219 480.109375 C -153.617188 480.746094 -153.84375 481.359375 -154.132812 481.949219 C -154.421875 482.539062 -154.765625 483.09375 -155.164062 483.617188 C -155.5625 484.140625 -156.007812 484.621094 -156.5 485.054688 L -186.511719 511.546875 C -187.003906 511.980469 -187.535156 512.363281 -188.101562 512.695312 C -188.671875 513.023438 -189.265625 513.296875 -189.886719 513.507812 C -190.507812 513.722656 -191.144531 513.875 -191.796875 513.960938 C -192.449219 514.046875 -193.101562 514.074219 -193.757812 514.03125 C -194.414062 513.992188 -195.058594 513.886719 -195.695312 513.71875 C -196.328125 513.550781 -196.941406 513.320312 -197.53125 513.03125 C -198.121094 512.746094 -198.679688 512.402344 -199.203125 512.003906 C -199.722656 511.605469 -200.203125 511.160156 -200.636719 510.664062 C -201.074219 510.171875 -201.457031 509.644531 -201.785156 509.074219 C -202.117188 508.507812 -202.386719 507.910156 -202.601562 507.289062 C -202.816406 506.667969 -202.964844 506.03125 -203.054688 505.382812 C -203.140625 504.730469 -203.164062 504.078125 -203.125 503.421875 C -203.082031 502.765625 -202.976562 502.117188 -202.808594 501.484375 C -202.640625 500.847656 -202.414062 500.234375 -202.125 499.644531 C -201.835938 499.054688 -201.492188 498.5 -201.09375 497.976562 C -200.695312 497.453125 -200.25 496.972656 -199.757812 496.539062 Z M -139.734375 443.554688 L -109.722656 417.0625 C -109.226562 416.628906 -108.699219 416.246094 -108.128906 415.917969 C -107.5625 415.585938 -106.96875 415.3125 -106.34375 415.101562 C -105.722656 414.886719 -105.085938 414.738281 -104.4375 414.648438 C -103.785156 414.5625 -103.132812 414.539062 -102.476562 414.578125 C -101.820312 414.621094 -101.175781 414.722656 -100.539062 414.890625 C -99.902344 415.058594 -99.289062 415.289062 -98.699219 415.578125 C -98.109375 415.867188 -97.554688 416.210938 -97.03125 416.609375 C -96.507812 417.007812 -96.03125 417.453125 -95.59375 417.945312 C -95.160156 418.4375 -94.777344 418.96875 -94.445312 419.535156 C -94.117188 420.105469 -93.84375 420.699219 -93.632812 421.320312 C -93.417969 421.941406 -93.269531 422.578125 -93.179688 423.230469 C -93.09375 423.878906 -93.070312 424.535156 -93.109375 425.191406 C -93.148438 425.84375 -93.253906 426.492188 -93.421875 427.125 C -93.589844 427.761719 -93.820312 428.375 -94.109375 428.964844 C -94.398438 429.554688 -94.742188 430.113281 -95.136719 430.632812 C -95.535156 431.15625 -95.980469 431.636719 -96.476562 432.070312 L -126.488281 458.5625 C -126.980469 458.996094 -127.511719 459.378906 -128.078125 459.710938 C -128.648438 460.039062 -129.242188 460.3125 -129.863281 460.527344 C -130.484375 460.738281 -131.121094 460.890625 -131.773438 460.976562 C -132.421875 461.066406 -133.078125 461.089844 -133.734375 461.046875 C -134.386719 461.007812 -135.035156 460.902344 -135.667969 460.734375 C -136.304688 460.566406 -136.917969 460.339844 -137.507812 460.050781 C -138.097656 459.761719 -138.65625 459.417969 -139.175781 459.019531 C -139.699219 458.621094 -140.179688 458.175781 -140.613281 457.683594 C -141.046875 457.191406 -141.429688 456.660156 -141.761719 456.089844 C -142.089844 455.523438 -142.363281 454.929688 -142.578125 454.308594 C -142.789062 453.683594 -142.941406 453.046875 -143.027344 452.398438 C -143.117188 451.746094 -143.140625 451.09375 -143.097656 450.4375 C -143.058594 449.78125 -142.953125 449.136719 -142.785156 448.5 C -142.617188 447.863281 -142.390625 447.253906 -142.101562 446.660156 C -141.8125 446.070312 -141.46875 445.515625 -141.070312 444.992188 C -140.671875 444.46875 -140.226562 443.992188 -139.734375 443.554688 Z M -79.707031 390.574219 L -49.695312 364.082031 C -49.203125 363.644531 -48.671875 363.261719 -48.105469 362.933594 C -47.539062 362.601562 -46.941406 362.332031 -46.320312 362.117188 C -45.699219 361.902344 -45.0625 361.753906 -44.410156 361.664062 C -43.761719 361.578125 -43.105469 361.554688 -42.449219 361.59375 C -41.796875 361.636719 -41.148438 361.742188 -40.515625 361.910156 C -39.878906 362.078125 -39.265625 362.304688 -38.675781 362.59375 C -38.085938 362.882812 -37.527344 363.226562 -37.007812 363.625 C -36.484375 364.023438 -36.003906 364.46875 -35.570312 364.960938 C -35.136719 365.453125 -34.753906 365.984375 -34.421875 366.550781 C -34.09375 367.121094 -33.820312 367.714844 -33.605469 368.335938 C -33.394531 368.957031 -33.242188 369.59375 -33.15625 370.246094 C -33.066406 370.898438 -33.042969 371.550781 -33.085938 372.207031 C -33.125 372.863281 -33.230469 373.507812 -33.398438 374.144531 C -33.566406 374.777344 -33.792969 375.390625 -34.082031 375.980469 C -34.371094 376.570312 -34.714844 377.128906 -35.113281 377.652344 C -35.511719 378.171875 -35.957031 378.652344 -36.449219 379.085938 L -66.460938 405.578125 C -66.957031 406.011719 -67.484375 406.394531 -68.054688 406.726562 C -68.621094 407.058594 -69.214844 407.328125 -69.839844 407.542969 C -70.460938 407.753906 -71.097656 407.90625 -71.746094 407.992188 C -72.398438 408.082031 -73.050781 408.105469 -73.707031 408.0625 C -74.363281 408.023438 -75.007812 407.917969 -75.644531 407.75 C -76.28125 407.582031 -76.894531 407.355469 -77.484375 407.066406 C -78.074219 406.777344 -78.628906 406.433594 -79.152344 406.035156 C -79.675781 405.636719 -80.152344 405.191406 -80.589844 404.699219 C -81.023438 404.207031 -81.40625 403.675781 -81.738281 403.109375 C -82.066406 402.539062 -82.339844 401.945312 -82.550781 401.324219 C -82.765625 400.703125 -82.914062 400.066406 -83.003906 399.414062 C -83.089844 398.761719 -83.113281 398.109375 -83.074219 397.453125 C -83.035156 396.796875 -82.929688 396.152344 -82.761719 395.515625 C -82.59375 394.882812 -82.363281 394.269531 -82.074219 393.679688 C -81.785156 393.085938 -81.445312 392.53125 -81.046875 392.007812 C -80.648438 391.484375 -80.203125 391.007812 -79.707031 390.574219 Z M -19.683594 337.589844 L 10.328125 311.097656 C 10.820312 310.664062 11.351562 310.28125 11.917969 309.949219 C 12.488281 309.617188 13.082031 309.347656 13.703125 309.132812 C 14.324219 308.921875 14.960938 308.769531 15.613281 308.683594 C 16.265625 308.59375 16.917969 308.570312 17.574219 308.613281 C 18.230469 308.652344 18.875 308.757812 19.511719 308.925781 C 20.144531 309.09375 20.757812 309.320312 21.347656 309.609375 C 21.9375 309.898438 22.496094 310.242188 23.019531 310.640625 C 23.539062 311.039062 24.019531 311.484375 24.453125 311.976562 C 24.890625 312.46875 25.273438 313 25.601562 313.570312 C 25.933594 314.136719 26.203125 314.730469 26.417969 315.351562 C 26.628906 315.972656 26.78125 316.609375 26.867188 317.261719 C 26.957031 317.914062 26.980469 318.566406 26.941406 319.222656 C 26.898438 319.878906 26.792969 320.523438 26.625 321.160156 C 26.457031 321.792969 26.230469 322.40625 25.941406 322.996094 C 25.652344 323.589844 25.308594 324.144531 24.910156 324.667969 C 24.511719 325.191406 24.066406 325.667969 23.574219 326.101562 L -6.4375 352.59375 C -6.929688 353.03125 -7.460938 353.414062 -8.027344 353.742188 C -8.597656 354.074219 -9.191406 354.34375 -9.8125 354.558594 C -10.433594 354.773438 -11.070312 354.921875 -11.722656 355.011719 C -12.375 355.097656 -13.027344 355.121094 -13.683594 355.082031 C -14.339844 355.039062 -14.984375 354.933594 -15.621094 354.765625 C -16.253906 354.597656 -16.867188 354.371094 -17.457031 354.082031 C -18.050781 353.792969 -18.605469 353.449219 -19.128906 353.050781 C -19.652344 352.652344 -20.128906 352.207031 -20.5625 351.714844 C -21 351.222656 -21.382812 350.691406 -21.710938 350.125 C -22.042969 349.554688 -22.3125 348.960938 -22.527344 348.339844 C -22.742188 347.71875 -22.890625 347.082031 -22.980469 346.429688 C -23.066406 345.777344 -23.089844 345.125 -23.050781 344.46875 C -23.007812 343.8125 -22.90625 343.167969 -22.738281 342.53125 C -22.570312 341.898438 -22.339844 341.285156 -22.050781 340.695312 C -21.761719 340.105469 -21.417969 339.546875 -21.019531 339.023438 C -20.621094 338.503906 -20.175781 338.023438 -19.683594 337.589844 Z M 40.339844 284.605469 L 70.351562 258.113281 C 70.84375 257.679688 71.375 257.296875 71.945312 256.964844 C 72.511719 256.636719 73.105469 256.363281 73.726562 256.148438 C 74.351562 255.9375 74.984375 255.785156 75.636719 255.699219 C 76.289062 255.609375 76.941406 255.585938 77.597656 255.628906 C 78.253906 255.667969 78.898438 255.773438 79.535156 255.941406 C 80.171875 256.109375 80.78125 256.339844 81.375 256.625 C 81.964844 256.914062 82.519531 257.257812 83.042969 257.65625 C 83.566406 258.054688 84.042969 258.5 84.480469 258.992188 C 84.914062 259.488281 85.296875 260.015625 85.625 260.585938 C 85.957031 261.152344 86.230469 261.746094 86.441406 262.371094 C 86.65625 262.992188 86.804688 263.628906 86.894531 264.277344 C 86.980469 264.929688 87.003906 265.582031 86.964844 266.238281 C 86.921875 266.894531 86.820312 267.539062 86.652344 268.175781 C 86.484375 268.8125 86.253906 269.425781 85.964844 270.015625 C 85.675781 270.605469 85.332031 271.160156 84.933594 271.683594 C 84.535156 272.207031 84.089844 272.683594 83.597656 273.121094 L 53.585938 299.613281 C 53.09375 300.046875 52.5625 300.429688 51.996094 300.757812 C 51.425781 301.089844 50.832031 301.363281 50.210938 301.574219 C 49.589844 301.789062 48.953125 301.9375 48.300781 302.027344 C 47.652344 302.113281 46.996094 302.136719 46.339844 302.097656 C 45.683594 302.054688 45.039062 301.953125 44.402344 301.785156 C 43.769531 301.617188 43.15625 301.386719 42.566406 301.097656 C 41.976562 300.808594 41.417969 300.464844 40.894531 300.066406 C 40.375 299.667969 39.894531 299.222656 39.460938 298.730469 C 39.027344 298.238281 38.644531 297.707031 38.3125 297.140625 C 37.980469 296.574219 37.710938 295.976562 37.496094 295.355469 C 37.285156 294.734375 37.132812 294.097656 37.046875 293.445312 C 36.957031 292.796875 36.933594 292.140625 36.976562 291.484375 C 37.015625 290.832031 37.121094 290.183594 37.289062 289.550781 C 37.457031 288.914062 37.683594 288.300781 37.972656 287.710938 C 38.261719 287.121094 38.605469 286.5625 39.003906 286.042969 C 39.402344 285.519531 39.847656 285.039062 40.339844 284.605469 Z M 100.363281 231.621094 L 130.378906 205.128906 C 130.871094 204.695312 131.398438 204.3125 131.96875 203.980469 C 132.535156 203.652344 133.132812 203.378906 133.753906 203.167969 C 134.375 202.953125 135.011719 202.804688 135.660156 202.714844 C 136.3125 202.628906 136.964844 202.605469 137.621094 202.644531 C 138.277344 202.683594 138.925781 202.789062 139.558594 202.957031 C 140.195312 203.125 140.808594 203.355469 141.398438 203.644531 C 141.988281 203.933594 142.542969 204.273438 143.066406 204.671875 C 143.589844 205.070312 144.070312 205.515625 144.503906 206.011719 C 144.9375 206.503906 145.320312 207.03125 145.652344 207.601562 C 145.980469 208.167969 146.253906 208.765625 146.464844 209.386719 C 146.679688 210.007812 146.832031 210.644531 146.917969 211.292969 C 147.007812 211.945312 147.03125 212.597656 146.988281 213.253906 C 146.949219 213.910156 146.84375 214.558594 146.675781 215.191406 C 146.507812 215.828125 146.277344 216.441406 145.988281 217.03125 C 145.703125 217.621094 145.359375 218.175781 144.960938 218.699219 C 144.5625 219.222656 144.117188 219.703125 143.625 220.136719 L 113.609375 246.628906 C 113.117188 247.0625 112.589844 247.445312 112.019531 247.777344 C 111.453125 248.105469 110.855469 248.378906 110.234375 248.589844 C 109.613281 248.804688 108.976562 248.957031 108.324219 249.042969 C 107.675781 249.132812 107.019531 249.15625 106.367188 249.113281 C 105.710938 249.074219 105.0625 248.96875 104.429688 248.800781 C 103.792969 248.632812 103.179688 248.402344 102.589844 248.113281 C 102 247.828125 101.445312 247.484375 100.921875 247.085938 C 100.398438 246.6875 99.917969 246.242188 99.484375 245.746094 C 99.050781 245.253906 98.667969 244.726562 98.335938 244.15625 C 98.007812 243.589844 97.734375 242.992188 97.519531 242.371094 C 97.308594 241.75 97.15625 241.113281 97.070312 240.464844 C 96.980469 239.8125 96.957031 239.160156 97 238.503906 C 97.039062 237.847656 97.144531 237.199219 97.3125 236.566406 C 97.480469 235.929688 97.710938 235.316406 97.996094 234.726562 C 98.285156 234.136719 98.628906 233.582031 99.027344 233.058594 C 99.425781 232.535156 99.871094 232.054688 100.363281 231.621094 Z M 160.390625 178.636719 L 190.402344 152.144531 C 190.894531 151.710938 191.425781 151.328125 191.992188 151 C 192.5625 150.667969 193.15625 150.394531 193.777344 150.183594 C 194.398438 149.96875 195.035156 149.820312 195.6875 149.730469 C 196.335938 149.644531 196.992188 149.621094 197.648438 149.660156 C 198.304688 149.703125 198.949219 149.804688 199.582031 149.972656 C 200.21875 150.140625 200.832031 150.371094 201.421875 150.660156 C 202.011719 150.949219 202.570312 151.292969 203.089844 151.691406 C 203.613281 152.089844 204.09375 152.535156 204.527344 153.027344 C 204.960938 153.519531 205.34375 154.050781 205.675781 154.617188 C 206.007812 155.183594 206.277344 155.78125 206.492188 156.402344 C 206.703125 157.023438 206.855469 157.660156 206.941406 158.3125 C 207.03125 158.960938 207.054688 159.617188 207.011719 160.273438 C 206.972656 160.925781 206.867188 161.574219 206.699219 162.207031 C 206.53125 162.84375 206.304688 163.457031 206.015625 164.046875 C 205.726562 164.636719 205.382812 165.195312 204.984375 165.714844 C 204.585938 166.238281 204.140625 166.71875 203.648438 167.152344 L 173.636719 193.644531 C 173.144531 194.078125 172.613281 194.460938 172.042969 194.792969 C 171.476562 195.121094 170.882812 195.394531 170.261719 195.609375 C 169.636719 195.820312 169.003906 195.972656 168.351562 196.058594 C 167.699219 196.148438 167.046875 196.171875 166.390625 196.128906 C 165.734375 196.089844 165.089844 195.984375 164.453125 195.816406 C 163.816406 195.648438 163.207031 195.421875 162.613281 195.132812 C 162.023438 194.84375 161.46875 194.5 160.945312 194.101562 C 160.421875 193.703125 159.945312 193.257812 159.507812 192.765625 C 159.074219 192.273438 158.691406 191.742188 158.363281 191.171875 C 158.03125 190.605469 157.757812 190.011719 157.546875 189.390625 C 157.332031 188.765625 157.183594 188.128906 157.09375 187.480469 C 157.007812 186.828125 156.984375 186.175781 157.023438 185.519531 C 157.066406 184.863281 157.167969 184.21875 157.335938 183.582031 C 157.503906 182.945312 157.734375 182.335938 158.023438 181.742188 C 158.3125 181.152344 158.65625 180.597656 159.054688 180.074219 C 159.453125 179.550781 159.898438 179.074219 160.390625 178.636719 Z M 220.414062 125.65625 L 250.425781 99.164062 C 250.917969 98.726562 251.449219 98.34375 252.015625 98.015625 C 252.585938 97.683594 253.179688 97.414062 253.800781 97.199219 C 254.421875 96.984375 255.058594 96.835938 255.710938 96.746094 C 256.363281 96.660156 257.015625 96.636719 257.671875 96.675781 C 258.328125 96.71875 258.972656 96.824219 259.609375 96.992188 C 260.242188 97.160156 260.855469 97.386719 261.445312 97.675781 C 262.035156 97.964844 262.59375 98.308594 263.117188 98.707031 C 263.640625 99.105469 264.117188 99.550781 264.550781 100.042969 C 264.988281 100.535156 265.371094 101.066406 265.699219 101.632812 C 266.03125 102.203125 266.300781 102.796875 266.515625 103.417969 C 266.730469 104.039062 266.878906 104.675781 266.96875 105.328125 C 267.054688 105.980469 267.078125 106.632812 267.039062 107.289062 C 266.996094 107.945312 266.894531 108.589844 266.726562 109.226562 C 266.554688 109.859375 266.328125 110.472656 266.039062 111.0625 C 265.75 111.652344 265.40625 112.210938 265.007812 112.734375 C 264.609375 113.253906 264.164062 113.734375 263.671875 114.167969 L 233.660156 140.660156 C 233.167969 141.09375 232.636719 141.476562 232.070312 141.808594 C 231.5 142.140625 230.90625 142.410156 230.285156 142.625 C 229.664062 142.835938 229.027344 142.988281 228.375 143.074219 C 227.722656 143.164062 227.070312 143.1875 226.414062 143.144531 C 225.757812 143.105469 225.113281 143 224.476562 142.832031 C 223.84375 142.664062 223.230469 142.4375 222.640625 142.148438 C 222.050781 141.859375 221.492188 141.515625 220.96875 141.117188 C 220.449219 140.71875 219.96875 140.273438 219.535156 139.78125 C 219.097656 139.289062 218.714844 138.757812 218.386719 138.191406 C 218.054688 137.621094 217.785156 137.027344 217.570312 136.40625 C 217.359375 135.785156 217.207031 135.148438 217.117188 134.496094 C 217.03125 133.84375 217.007812 133.191406 217.046875 132.535156 C 217.089844 131.878906 217.195312 131.234375 217.363281 130.597656 C 217.53125 129.964844 217.757812 129.351562 218.046875 128.761719 C 218.335938 128.171875 218.679688 127.613281 219.078125 127.089844 C 219.476562 126.566406 219.921875 126.089844 220.414062 125.65625 Z M 220.414062 125.65625 " fill-opacity="1" fill-rule="nonzero"/></g><path stroke-linecap="round" transform="matrix(5.002048, -4.415299, 4.415299, 5.002048, -687.457462, 927.031361)" fill-opacity="1" fill="#000000" fill-rule="nonzero" stroke-linejoin="round" d="M 194.940503 -2.999979 L 200.940043 1.500038 L 194.940021 5.999816 Z M 194.940503 -2.999979 " stroke="#000000" stroke-width="3" stroke-opacity="1" stroke-miterlimit="4"/><path fill="#000000" d="M 157.8125 180.898438 L 232.84375 114.667969 C 233.335938 114.234375 233.867188 113.851562 234.433594 113.523438 C 235.003906 113.191406 235.597656 112.917969 236.21875 112.707031 C 236.839844 112.492188 237.476562 112.34375 238.128906 112.253906 C 238.78125 112.167969 239.433594 112.144531 240.089844 112.183594 C 240.746094 112.226562 241.390625 112.328125 242.027344 112.496094 C 242.660156 112.664062 243.273438 112.894531 243.863281 113.183594 C 244.453125 113.472656 245.011719 113.816406 245.535156 114.214844 C 246.054688 114.613281 246.535156 115.058594 246.96875 115.550781 C 247.40625 116.042969 247.789062 116.574219 248.117188 117.140625 C 248.449219 117.707031 248.71875 118.304688 248.933594 118.925781 C 249.148438 119.546875 249.296875 120.183594 249.386719 120.835938 C 249.472656 121.484375 249.496094 122.140625 249.457031 122.796875 C 249.414062 123.449219 249.308594 124.097656 249.140625 124.730469 C 248.972656 125.367188 248.746094 125.980469 248.457031 126.570312 C 248.167969 127.160156 247.824219 127.71875 247.425781 128.238281 C 247.027344 128.761719 246.582031 129.242188 246.089844 129.675781 L 171.058594 195.90625 C 170.566406 196.339844 170.035156 196.722656 169.46875 197.054688 C 168.898438 197.382812 168.304688 197.65625 167.683594 197.867188 C 167.0625 198.082031 166.425781 198.234375 165.773438 198.320312 C 165.125 198.40625 164.46875 198.433594 163.8125 198.390625 C 163.15625 198.351562 162.511719 198.246094 161.878906 198.078125 C 161.242188 197.910156 160.628906 197.679688 160.039062 197.390625 C 159.449219 197.105469 158.890625 196.761719 158.371094 196.363281 C 157.847656 195.964844 157.367188 195.519531 156.933594 195.023438 C 156.5 194.53125 156.117188 194.003906 155.785156 193.433594 C 155.453125 192.867188 155.183594 192.269531 154.96875 191.648438 C 154.757812 191.027344 154.605469 190.390625 154.519531 189.742188 C 154.429688 189.089844 154.40625 188.4375 154.449219 187.78125 C 154.488281 187.125 154.59375 186.476562 154.761719 185.84375 C 154.929688 185.207031 155.15625 184.59375 155.445312 184.003906 C 155.734375 183.414062 156.078125 182.859375 156.476562 182.335938 C 156.875 181.8125 157.320312 181.335938 157.8125 180.898438 Z M 157.8125 180.898438 " fill-opacity="1" fill-rule="nonzero"/><g clip-path="url(#cb8f09ff26)"><path fill="#000000" d="M -9.976562 329.003906 L 65.054688 262.777344 C 65.546875 262.339844 66.078125 261.957031 66.648438 261.628906 C 67.214844 261.296875 67.808594 261.027344 68.429688 260.8125 C 69.050781 260.597656 69.6875 260.449219 70.339844 260.359375 C 70.992188 260.273438 71.644531 260.25 72.300781 260.289062 C 72.957031 260.332031 73.601562 260.4375 74.238281 260.605469 C 74.871094 260.773438 75.484375 261 76.074219 261.289062 C 76.667969 261.578125 77.222656 261.921875 77.746094 262.320312 C 78.269531 262.71875 78.746094 263.164062 79.183594 263.65625 C 79.617188 264.148438 80 264.679688 80.328125 265.246094 C 80.660156 265.816406 80.933594 266.410156 81.144531 267.03125 C 81.359375 267.652344 81.507812 268.289062 81.597656 268.941406 C 81.683594 269.59375 81.707031 270.246094 81.667969 270.902344 C 81.625 271.558594 81.523438 272.203125 81.355469 272.839844 C 81.1875 273.472656 80.957031 274.085938 80.667969 274.675781 C 80.378906 275.265625 80.035156 275.824219 79.636719 276.347656 C 79.238281 276.867188 78.792969 277.347656 78.300781 277.78125 L 3.269531 344.011719 C 2.777344 344.445312 2.246094 344.828125 1.679688 345.160156 C 1.113281 345.488281 0.515625 345.761719 -0.105469 345.976562 C -0.726562 346.1875 -1.363281 346.339844 -2.015625 346.425781 C -2.664062 346.515625 -3.320312 346.539062 -3.972656 346.496094 C -4.628906 346.457031 -5.277344 346.351562 -5.910156 346.183594 C -6.546875 346.015625 -7.160156 345.789062 -7.75 345.5 C -8.339844 345.210938 -8.894531 344.867188 -9.417969 344.46875 C -9.941406 344.070312 -10.421875 343.625 -10.855469 343.132812 C -11.289062 342.640625 -11.671875 342.109375 -12.003906 341.539062 C -12.332031 340.972656 -12.605469 340.378906 -12.820312 339.757812 C -13.03125 339.132812 -13.183594 338.496094 -13.269531 337.847656 C -13.359375 337.195312 -13.382812 336.542969 -13.339844 335.886719 C -13.300781 335.230469 -13.195312 334.585938 -13.027344 333.949219 C -12.859375 333.3125 -12.632812 332.703125 -12.34375 332.109375 C -12.054688 331.519531 -11.710938 330.964844 -11.3125 330.441406 C -10.914062 329.917969 -10.46875 329.441406 -9.976562 329.003906 Z M -9.976562 329.003906 " fill-opacity="1" fill-rule="nonzero"/></g></g></g></svg>